<svg width="1200" height="675" viewBox="0 0 1200 675" fill="none" xmlns="http://www.w3.org/2000/svg" role="img" aria-labelledby="title desc">
  <title id="title">Nature-track feature poster</title>
  <desc id="desc">A compact feature poster for a local literature tracking tool that monitors journals, filters papers, opens PDFs, and sends email digests.</desc>
  <rect width="1200" height="675" fill="#F7F8F3"/>
  <rect x="48" y="48" width="1104" height="579" rx="24" fill="#FFFFFF" stroke="#D8DED3" stroke-width="2"/>

  <g transform="translate(86 84)">
    <text x="0" y="0" fill="#1E2A26" font-family="Inter, Segoe UI, Arial, sans-serif" font-size="28" font-weight="700">Nature-track</text>
    <text x="0" y="48" fill="#1E2A26" font-family="Inter, Segoe UI, Arial, sans-serif" font-size="56" font-weight="760">Never miss the papers</text>
    <text x="0" y="108" fill="#1E2A26" font-family="Inter, Segoe UI, Arial, sans-serif" font-size="56" font-weight="760">that shape your field.</text>
    <text x="2" y="154" fill="#53625B" font-family="Inter, Segoe UI, Arial, sans-serif" font-size="21">A local literature radar for Nature, Science, One Earth, GCB, and other</text>
    <text x="2" y="184" fill="#53625B" font-family="Inter, Segoe UI, Arial, sans-serif" font-size="21">Earth and environmental science journals.</text>

    <g transform="translate(0 235)">
      <rect x="0" y="0" width="302" height="96" rx="14" fill="#F1F5EA" stroke="#D2DDC8"/>
      <circle cx="42" cy="48" r="22" fill="#2E6F5E"/>
      <path d="M31 49.5L40 58L55 38" stroke="#FFFFFF" stroke-width="5" stroke-linecap="round" stroke-linejoin="round"/>
      <text x="82" y="39" fill="#24312D" font-family="Inter, Segoe UI, Arial, sans-serif" font-size="22" font-weight="700">Track journals</text>
      <text x="82" y="68" fill="#607067" font-family="Inter, Segoe UI, Arial, sans-serif" font-size="16">Curated lists plus custom targets</text>
    </g>

    <g transform="translate(326 235)">
      <rect x="0" y="0" width="302" height="96" rx="14" fill="#EEF4F7" stroke="#CADBE2"/>
      <circle cx="42" cy="48" r="22" fill="#276B85"/>
      <path d="M31 48H53M42 37V59" stroke="#FFFFFF" stroke-width="5" stroke-linecap="round"/>
      <text x="82" y="39" fill="#24312D" font-family="Inter, Segoe UI, Arial, sans-serif" font-size="22" font-weight="700">Filter fast</text>
      <text x="82" y="68" fill="#607067" font-family="Inter, Segoe UI, Arial, sans-serif" font-size="16">Date, keyword, type, abstract</text>
    </g>

    <g transform="translate(0 351)">
      <rect x="0" y="0" width="302" height="96" rx="14" fill="#F7F2E8" stroke="#E2D5BD"/>
      <circle cx="42" cy="48" r="22" fill="#9A6A28"/>
      <path d="M34 37H51V58H34V37ZM39 43H46M39 49H46" stroke="#FFFFFF" stroke-width="4" stroke-linecap="round" stroke-linejoin="round"/>
      <text x="82" y="39" fill="#24312D" font-family="Inter, Segoe UI, Arial, sans-serif" font-size="22" font-weight="700">Read smarter</text>
      <text x="82" y="68" fill="#607067" font-family="Inter, Segoe UI, Arial, sans-serif" font-size="16">Compact author-journal-title view</text>
    </g>

    <g transform="translate(326 351)">
      <rect x="0" y="0" width="302" height="96" rx="14" fill="#F4EEF7" stroke="#DACBE3"/>
      <circle cx="42" cy="48" r="22" fill="#704B87"/>
      <path d="M30 40L42 50L54 40M31 58H53C55 58 56 57 56 55V41C56 39 55 38 53 38H31C29 38 28 39 28 41V55C28 57 29 58 31 58Z" stroke="#FFFFFF" stroke-width="4" stroke-linecap="round" stroke-linejoin="round"/>
      <text x="82" y="39" fill="#24312D" font-family="Inter, Segoe UI, Arial, sans-serif" font-size="22" font-weight="700">Send digests</text>
      <text x="82" y="68" fill="#607067" font-family="Inter, Segoe UI, Arial, sans-serif" font-size="16">Manual email or scheduled push</text>
    </g>
  </g>

  <g transform="translate(772 108)">
    <rect x="0" y="0" width="312" height="444" rx="18" fill="#1F2D2A"/>
    <rect x="20" y="22" width="272" height="40" rx="8" fill="#30413D"/>
    <circle cx="42" cy="42" r="8" fill="#7BB89B"/>
    <rect x="62" y="35" width="142" height="14" rx="7" fill="#B9D8C8"/>

    <g transform="translate(20 88)">
      <rect width="272" height="74" rx="10" fill="#F8FAF5"/>
      <rect x="18" y="18" width="74" height="12" rx="6" fill="#2E6F5E"/>
      <rect x="18" y="42" width="202" height="10" rx="5" fill="#9AA9A0"/>
      <rect x="228" y="22" width="24" height="24" rx="5" fill="#DDE9D9"/>
    </g>

    <g transform="translate(20 178)">
      <rect width="272" height="74" rx="10" fill="#F8FAF5"/>
      <rect x="18" y="18" width="94" height="12" rx="6" fill="#276B85"/>
      <rect x="18" y="42" width="220" height="10" rx="5" fill="#9AA9A0"/>
      <rect x="228" y="22" width="24" height="24" rx="5" fill="#D6E8EF"/>
    </g>

    <g transform="translate(20 268)">
      <rect width="272" height="74" rx="10" fill="#F8FAF5"/>
      <rect x="18" y="18" width="82" height="12" rx="6" fill="#9A6A28"/>
      <rect x="18" y="42" width="192" height="10" rx="5" fill="#9AA9A0"/>
      <rect x="228" y="22" width="24" height="24" rx="5" fill="#EFE1C8"/>
    </g>

    <g transform="translate(20 370)">
      <rect x="0" y="0" width="124" height="38" rx="9" fill="#7BB89B"/>
      <text x="22" y="25" fill="#10231E" font-family="Inter, Segoe UI, Arial, sans-serif" font-size="15" font-weight="700">Open PDF</text>
      <rect x="148" y="0" width="124" height="38" rx="9" fill="#E8EFEA"/>
      <text x="177" y="25" fill="#26352F" font-family="Inter, Segoe UI, Arial, sans-serif" font-size="15" font-weight="700">Email</text>
    </g>
  </g>

  <g transform="translate(86 590)">
    <text x="0" y="0" fill="#6D7B73" font-family="Inter, Segoe UI, Arial, sans-serif" font-size="16">OpenAlex metadata · Local settings · PDF links when available · Windows scheduled digest</text>
  </g>
</svg>
